<mxfile host="app.diagrams.net" modified="2023-05-10T08:27:00.508Z" agent="Mozilla/5.0 (Macintosh; Intel Mac OS X 10.15; rv:109.0) Gecko/20100101 Firefox/112.0" etag="QUcArXWAQo7PmqvXvjew" version="21.2.9" type="github">
  <diagram name="Seite-1" id="iXZENEn_q2fQllutZCWd">
    <mxGraphModel dx="2053" dy="1044" grid="1" gridSize="10" guides="1" tooltips="1" connect="1" arrows="1" fold="1" page="1" pageScale="1" pageWidth="827" pageHeight="1169" math="0" shadow="0">
      <root>
        <mxCell id="0" />
        <mxCell id="1" parent="0" />
        <mxCell id="ZHsEEIwiQLsHOn7oS_-y-56" value="" style="rounded=1;whiteSpace=wrap;html=1;fontSize=17;" parent="1" vertex="1">
          <mxGeometry x="440" y="430" width="390" height="80" as="geometry" />
        </mxCell>
        <mxCell id="ZHsEEIwiQLsHOn7oS_-y-55" value="" style="rounded=1;whiteSpace=wrap;html=1;fontSize=17;" parent="1" vertex="1">
          <mxGeometry x="509" y="360" width="320" height="60" as="geometry" />
        </mxCell>
        <mxCell id="ZHsEEIwiQLsHOn7oS_-y-54" value="" style="rounded=1;whiteSpace=wrap;html=1;fontSize=17;" parent="1" vertex="1">
          <mxGeometry x="440" y="240" width="389" height="110" as="geometry" />
        </mxCell>
        <mxCell id="ZHsEEIwiQLsHOn7oS_-y-53" value="" style="rounded=1;whiteSpace=wrap;html=1;fontSize=17;" parent="1" vertex="1">
          <mxGeometry x="509" y="150" width="320" height="75.67" as="geometry" />
        </mxCell>
        <mxCell id="ZHsEEIwiQLsHOn7oS_-y-52" value="" style="rounded=1;whiteSpace=wrap;html=1;fontSize=17;" parent="1" vertex="1">
          <mxGeometry x="510" y="20" width="320" height="120" as="geometry" />
        </mxCell>
        <mxCell id="Op6j-uJR2z3PEhxc3Ha4-1" value="" style="endArrow=classic;html=1;rounded=0;strokeColor=#00CC00;strokeWidth=2;fontSize=17;" parent="1" edge="1">
          <mxGeometry width="50" height="50" relative="1" as="geometry">
            <mxPoint x="230" y="570" as="sourcePoint" />
            <mxPoint x="320" y="570" as="targetPoint" />
          </mxGeometry>
        </mxCell>
        <mxCell id="Op6j-uJR2z3PEhxc3Ha4-2" value="immediatelyPrecedes" style="text;html=1;strokeColor=none;fillColor=none;align=left;verticalAlign=middle;whiteSpace=wrap;rounded=0;fontSize=17;" parent="1" vertex="1">
          <mxGeometry x="230" y="550" width="100" height="12" as="geometry" />
        </mxCell>
        <mxCell id="Op6j-uJR2z3PEhxc3Ha4-9" value="" style="endArrow=classic;html=1;rounded=0;strokeColor=#000000;strokeWidth=2;fontSize=17;" parent="1" edge="1">
          <mxGeometry width="50" height="50" relative="1" as="geometry">
            <mxPoint x="230" y="610" as="sourcePoint" />
            <mxPoint x="320" y="610" as="targetPoint" />
          </mxGeometry>
        </mxCell>
        <mxCell id="Op6j-uJR2z3PEhxc3Ha4-10" value="&amp;nbsp;label" style="text;html=1;strokeColor=none;fillColor=none;align=left;verticalAlign=middle;whiteSpace=wrap;rounded=0;fontSize=17;" parent="1" vertex="1">
          <mxGeometry x="230" y="590" width="100" height="12" as="geometry" />
        </mxCell>
        <mxCell id="Op6j-uJR2z3PEhxc3Ha4-11" value="" style="endArrow=classic;html=1;rounded=0;strokeColor=#33FFFF;strokeWidth=2;fontSize=17;" parent="1" edge="1">
          <mxGeometry width="50" height="50" relative="1" as="geometry">
            <mxPoint x="230" y="650" as="sourcePoint" />
            <mxPoint x="320" y="650" as="targetPoint" />
          </mxGeometry>
        </mxCell>
        <mxCell id="Op6j-uJR2z3PEhxc3Ha4-12" value="flowsTo" style="text;html=1;strokeColor=none;fillColor=none;align=left;verticalAlign=middle;whiteSpace=wrap;rounded=0;fontSize=17;" parent="1" vertex="1">
          <mxGeometry x="230" y="630" width="100" height="12" as="geometry" />
        </mxCell>
        <mxCell id="ZHsEEIwiQLsHOn7oS_-y-2" value="1" style="ellipse;whiteSpace=wrap;html=1;strokeColor=none;fillColor=#CCCCCC;fontStyle=1;fontSize=17;" parent="1" vertex="1">
          <mxGeometry x="534" y="92" width="30" height="40" as="geometry" />
        </mxCell>
        <mxCell id="ZHsEEIwiQLsHOn7oS_-y-3" value="" style="endArrow=classic;html=1;rounded=0;strokeColor=#000000;strokeWidth=2;fontSize=17;" parent="1" edge="1">
          <mxGeometry width="50" height="50" relative="1" as="geometry">
            <mxPoint x="564" y="111.5" as="sourcePoint" />
            <mxPoint x="620" y="112" as="targetPoint" />
          </mxGeometry>
        </mxCell>
        <mxCell id="ZHsEEIwiQLsHOn7oS_-y-4" value="numpy.loadtxt" style="text;html=1;strokeColor=none;fillColor=none;align=left;verticalAlign=middle;whiteSpace=wrap;rounded=0;fontSize=17;" parent="1" vertex="1">
          <mxGeometry x="630" y="97" width="60" height="30" as="geometry" />
        </mxCell>
        <mxCell id="ZHsEEIwiQLsHOn7oS_-y-5" value="2" style="ellipse;whiteSpace=wrap;html=1;strokeColor=none;fillColor=#CCCCCC;fontStyle=1;fontSize=17;" parent="1" vertex="1">
          <mxGeometry x="534" y="180" width="30" height="40" as="geometry" />
        </mxCell>
        <mxCell id="ZHsEEIwiQLsHOn7oS_-y-6" value="" style="endArrow=classic;html=1;rounded=0;strokeColor=#000000;strokeWidth=2;fontSize=17;" parent="1" edge="1">
          <mxGeometry width="50" height="50" relative="1" as="geometry">
            <mxPoint x="564" y="199.5" as="sourcePoint" />
            <mxPoint x="620" y="200" as="targetPoint" />
          </mxGeometry>
        </mxCell>
        <mxCell id="ZHsEEIwiQLsHOn7oS_-y-7" value="computeBins" style="text;html=1;strokeColor=none;fillColor=none;align=left;verticalAlign=middle;whiteSpace=wrap;rounded=0;fontSize=17;" parent="1" vertex="1">
          <mxGeometry x="630" y="185" width="60" height="30" as="geometry" />
        </mxCell>
        <mxCell id="ZHsEEIwiQLsHOn7oS_-y-8" value="3" style="ellipse;whiteSpace=wrap;html=1;strokeColor=none;fillColor=#CCCCCC;fontStyle=1;fontSize=17;" parent="1" vertex="1">
          <mxGeometry x="534" y="270" width="30" height="40" as="geometry" />
        </mxCell>
        <mxCell id="ZHsEEIwiQLsHOn7oS_-y-9" value="" style="endArrow=classic;html=1;rounded=0;strokeColor=#000000;strokeWidth=2;fontSize=17;" parent="1" edge="1">
          <mxGeometry width="50" height="50" relative="1" as="geometry">
            <mxPoint x="564" y="289.5" as="sourcePoint" />
            <mxPoint x="620" y="290" as="targetPoint" />
          </mxGeometry>
        </mxCell>
        <mxCell id="ZHsEEIwiQLsHOn7oS_-y-10" value="plt.hist" style="text;html=1;strokeColor=none;fillColor=none;align=left;verticalAlign=middle;whiteSpace=wrap;rounded=0;fontSize=17;" parent="1" vertex="1">
          <mxGeometry x="630" y="275" width="60" height="30" as="geometry" />
        </mxCell>
        <mxCell id="ZHsEEIwiQLsHOn7oS_-y-11" value="" style="endArrow=classic;html=1;rounded=0;strokeColor=#00CC00;strokeWidth=2;entryX=0.5;entryY=0;entryDx=0;entryDy=0;fontSize=17;" parent="1" target="ZHsEEIwiQLsHOn7oS_-y-5" edge="1">
          <mxGeometry width="50" height="50" relative="1" as="geometry">
            <mxPoint x="550" y="131" as="sourcePoint" />
            <mxPoint x="640" y="131" as="targetPoint" />
          </mxGeometry>
        </mxCell>
        <mxCell id="ZHsEEIwiQLsHOn7oS_-y-12" value="" style="endArrow=classic;html=1;strokeColor=#33FFFF;strokeWidth=2;exitX=1;exitY=1;exitDx=0;exitDy=0;entryX=1;entryY=0;entryDx=0;entryDy=0;curved=1;fontSize=17;" parent="1" source="ZHsEEIwiQLsHOn7oS_-y-2" target="ZHsEEIwiQLsHOn7oS_-y-5" edge="1">
          <mxGeometry width="50" height="50" relative="1" as="geometry">
            <mxPoint x="580" y="132" as="sourcePoint" />
            <mxPoint x="670" y="132" as="targetPoint" />
            <Array as="points">
              <mxPoint x="590" y="150" />
            </Array>
          </mxGeometry>
        </mxCell>
        <mxCell id="ZHsEEIwiQLsHOn7oS_-y-13" value="" style="endArrow=classic;html=1;rounded=0;strokeColor=#FF66FF;strokeWidth=2;fontSize=17;" parent="1" edge="1">
          <mxGeometry width="50" height="50" relative="1" as="geometry">
            <mxPoint x="486" y="570" as="sourcePoint" />
            <mxPoint x="576" y="570" as="targetPoint" />
          </mxGeometry>
        </mxCell>
        <mxCell id="ZHsEEIwiQLsHOn7oS_-y-14" value="hasInput" style="text;html=1;strokeColor=none;fillColor=none;align=left;verticalAlign=middle;whiteSpace=wrap;rounded=0;fontSize=17;" parent="1" vertex="1">
          <mxGeometry x="486" y="550" width="100" height="12" as="geometry" />
        </mxCell>
        <mxCell id="ZHsEEIwiQLsHOn7oS_-y-17" value="" style="endArrow=classic;html=1;rounded=0;strokeColor=#FF0000;strokeWidth=2;fontSize=17;" parent="1" edge="1">
          <mxGeometry width="50" height="50" relative="1" as="geometry">
            <mxPoint x="486" y="601.6899999999999" as="sourcePoint" />
            <mxPoint x="576" y="601.6899999999999" as="targetPoint" />
          </mxGeometry>
        </mxCell>
        <mxCell id="ZHsEEIwiQLsHOn7oS_-y-18" value="hasOrdinalPosition" style="text;html=1;strokeColor=none;fillColor=none;align=left;verticalAlign=middle;whiteSpace=wrap;rounded=0;fontSize=17;" parent="1" vertex="1">
          <mxGeometry x="486" y="581.6899999999999" width="100" height="12" as="geometry" />
        </mxCell>
        <mxCell id="ZHsEEIwiQLsHOn7oS_-y-19" value="" style="endArrow=classic;html=1;rounded=0;strokeColor=#9933FF;strokeWidth=2;fontSize=17;" parent="1" edge="1">
          <mxGeometry width="50" height="50" relative="1" as="geometry">
            <mxPoint x="486" y="642.0300000000001" as="sourcePoint" />
            <mxPoint x="576" y="642.0300000000001" as="targetPoint" />
          </mxGeometry>
        </mxCell>
        <mxCell id="ZHsEEIwiQLsHOn7oS_-y-20" value="name" style="text;html=1;strokeColor=none;fillColor=none;align=left;verticalAlign=middle;whiteSpace=wrap;rounded=0;fontSize=17;" parent="1" vertex="1">
          <mxGeometry x="486" y="622.0300000000001" width="100" height="12" as="geometry" />
        </mxCell>
        <mxCell id="ZHsEEIwiQLsHOn7oS_-y-21" value="" style="endArrow=classic;html=1;rounded=0;strokeColor=#FF0000;strokeWidth=2;fontSize=17;" parent="1" edge="1">
          <mxGeometry width="50" height="50" relative="1" as="geometry">
            <mxPoint x="580" y="169.64" as="sourcePoint" />
            <mxPoint x="630" y="169.64" as="targetPoint" />
          </mxGeometry>
        </mxCell>
        <mxCell id="ZHsEEIwiQLsHOn7oS_-y-22" value="1" style="text;html=1;strokeColor=none;fillColor=none;align=left;verticalAlign=middle;whiteSpace=wrap;rounded=0;fontSize=17;" parent="1" vertex="1">
          <mxGeometry x="639" y="153.64" width="60" height="30" as="geometry" />
        </mxCell>
        <mxCell id="ZHsEEIwiQLsHOn7oS_-y-23" value="" style="endArrow=classic;html=1;strokeColor=#FF66FF;strokeWidth=2;exitX=0.5;exitY=0;exitDx=0;exitDy=0;curved=1;fontSize=17;" parent="1" source="ZHsEEIwiQLsHOn7oS_-y-2" edge="1">
          <mxGeometry width="50" height="50" relative="1" as="geometry">
            <mxPoint x="549" y="70" as="sourcePoint" />
            <mxPoint x="590" y="40" as="targetPoint" />
            <Array as="points">
              <mxPoint x="510" y="40" />
            </Array>
          </mxGeometry>
        </mxCell>
        <mxCell id="ZHsEEIwiQLsHOn7oS_-y-24" value="nonParamTrain.txt" style="text;html=1;strokeColor=none;fillColor=none;align=left;verticalAlign=middle;whiteSpace=wrap;rounded=0;fontSize=17;" parent="1" vertex="1">
          <mxGeometry x="600" y="22" width="60" height="30" as="geometry" />
        </mxCell>
        <mxCell id="ZHsEEIwiQLsHOn7oS_-y-25" value="" style="endArrow=classic;html=1;rounded=0;strokeColor=#FF0000;strokeWidth=2;fontSize=17;" parent="1" edge="1">
          <mxGeometry width="50" height="50" relative="1" as="geometry">
            <mxPoint x="541" y="65.99999999999997" as="sourcePoint" />
            <mxPoint x="591" y="66" as="targetPoint" />
          </mxGeometry>
        </mxCell>
        <mxCell id="ZHsEEIwiQLsHOn7oS_-y-26" value="1" style="text;html=1;strokeColor=none;fillColor=none;align=left;verticalAlign=middle;whiteSpace=wrap;rounded=0;fontSize=17;" parent="1" vertex="1">
          <mxGeometry x="600" y="50" width="60" height="30" as="geometry" />
        </mxCell>
        <mxCell id="ZHsEEIwiQLsHOn7oS_-y-27" value="" style="endArrow=classic;html=1;rounded=0;strokeColor=#00CC00;strokeWidth=2;entryX=0.5;entryY=0;entryDx=0;entryDy=0;fontSize=17;" parent="1" edge="1">
          <mxGeometry width="50" height="50" relative="1" as="geometry">
            <mxPoint x="549.5" y="220" as="sourcePoint" />
            <mxPoint x="548.5" y="269" as="targetPoint" />
          </mxGeometry>
        </mxCell>
        <mxCell id="ZHsEEIwiQLsHOn7oS_-y-28" value="4" style="ellipse;whiteSpace=wrap;html=1;strokeColor=none;fillColor=#CCCCCC;fontStyle=1;fontSize=17;" parent="1" vertex="1">
          <mxGeometry x="534" y="370" width="30" height="40" as="geometry" />
        </mxCell>
        <mxCell id="ZHsEEIwiQLsHOn7oS_-y-29" value="" style="endArrow=classic;html=1;rounded=0;strokeColor=#000000;strokeWidth=2;fontSize=17;" parent="1" edge="1">
          <mxGeometry width="50" height="50" relative="1" as="geometry">
            <mxPoint x="564" y="389.5" as="sourcePoint" />
            <mxPoint x="620" y="390" as="targetPoint" />
          </mxGeometry>
        </mxCell>
        <mxCell id="ZHsEEIwiQLsHOn7oS_-y-30" value="plt.show" style="text;html=1;strokeColor=none;fillColor=none;align=left;verticalAlign=middle;whiteSpace=wrap;rounded=0;fontSize=17;" parent="1" vertex="1">
          <mxGeometry x="630" y="375" width="60" height="30" as="geometry" />
        </mxCell>
        <mxCell id="ZHsEEIwiQLsHOn7oS_-y-31" value="" style="endArrow=classic;html=1;rounded=0;strokeColor=#00CC00;strokeWidth=2;entryX=0.5;entryY=0;entryDx=0;entryDy=0;fontSize=17;" parent="1" target="ZHsEEIwiQLsHOn7oS_-y-28" edge="1">
          <mxGeometry width="50" height="50" relative="1" as="geometry">
            <mxPoint x="549.5" y="310" as="sourcePoint" />
            <mxPoint x="548.5" y="359" as="targetPoint" />
          </mxGeometry>
        </mxCell>
        <mxCell id="ZHsEEIwiQLsHOn7oS_-y-32" value="5" style="ellipse;whiteSpace=wrap;html=1;strokeColor=none;fillColor=#CCCCCC;fontStyle=1;fontSize=17;" parent="1" vertex="1">
          <mxGeometry x="534" y="460" width="30" height="40" as="geometry" />
        </mxCell>
        <mxCell id="ZHsEEIwiQLsHOn7oS_-y-33" value="" style="endArrow=classic;html=1;rounded=0;strokeColor=#000000;strokeWidth=2;fontSize=17;" parent="1" edge="1">
          <mxGeometry width="50" height="50" relative="1" as="geometry">
            <mxPoint x="564" y="479.5" as="sourcePoint" />
            <mxPoint x="620" y="480" as="targetPoint" />
          </mxGeometry>
        </mxCell>
        <mxCell id="ZHsEEIwiQLsHOn7oS_-y-34" value="print" style="text;html=1;strokeColor=none;fillColor=none;align=left;verticalAlign=middle;whiteSpace=wrap;rounded=0;fontSize=17;" parent="1" vertex="1">
          <mxGeometry x="630" y="465" width="60" height="30" as="geometry" />
        </mxCell>
        <mxCell id="ZHsEEIwiQLsHOn7oS_-y-35" value="" style="endArrow=classic;html=1;rounded=0;strokeColor=#00CC00;strokeWidth=2;entryX=0.25;entryY=1;entryDx=0;entryDy=0;fontSize=17;" parent="1" target="ZHsEEIwiQLsHOn7oS_-y-38" edge="1">
          <mxGeometry width="50" height="50" relative="1" as="geometry">
            <mxPoint x="548" y="410" as="sourcePoint" />
            <mxPoint x="549" y="430" as="targetPoint" />
          </mxGeometry>
        </mxCell>
        <mxCell id="ZHsEEIwiQLsHOn7oS_-y-36" value="" style="endArrow=classic;html=1;strokeColor=#33FFFF;strokeWidth=2;exitX=0;exitY=0.5;exitDx=0;exitDy=0;entryX=0;entryY=0.5;entryDx=0;entryDy=0;curved=1;fontSize=17;" parent="1" source="ZHsEEIwiQLsHOn7oS_-y-5" target="ZHsEEIwiQLsHOn7oS_-y-32" edge="1">
          <mxGeometry width="50" height="50" relative="1" as="geometry">
            <mxPoint x="286" y="205" as="sourcePoint" />
            <mxPoint x="376" y="205" as="targetPoint" />
            <Array as="points">
              <mxPoint x="206" y="480" />
            </Array>
          </mxGeometry>
        </mxCell>
        <mxCell id="ZHsEEIwiQLsHOn7oS_-y-37" value="" style="endArrow=classic;html=1;rounded=0;strokeColor=#FF0000;strokeWidth=2;fontSize=17;" parent="1" edge="1">
          <mxGeometry width="50" height="50" relative="1" as="geometry">
            <mxPoint x="473" y="449" as="sourcePoint" />
            <mxPoint x="523" y="449" as="targetPoint" />
          </mxGeometry>
        </mxCell>
        <mxCell id="ZHsEEIwiQLsHOn7oS_-y-38" value="1" style="text;html=1;strokeColor=none;fillColor=none;align=left;verticalAlign=middle;whiteSpace=wrap;rounded=0;fontSize=17;" parent="1" vertex="1">
          <mxGeometry x="533" y="433" width="59" height="30" as="geometry" />
        </mxCell>
        <mxCell id="ZHsEEIwiQLsHOn7oS_-y-40" value="" style="endArrow=classic;html=1;strokeColor=#33FFFF;strokeWidth=2;exitX=0;exitY=0.5;exitDx=0;exitDy=0;entryX=0;entryY=0.5;entryDx=0;entryDy=0;curved=1;fontSize=17;" parent="1" source="ZHsEEIwiQLsHOn7oS_-y-2" target="ZHsEEIwiQLsHOn7oS_-y-8" edge="1">
          <mxGeometry width="50" height="50" relative="1" as="geometry">
            <mxPoint x="410" y="200" as="sourcePoint" />
            <mxPoint x="410" y="470" as="targetPoint" />
            <Array as="points">
              <mxPoint x="206" y="280" />
            </Array>
          </mxGeometry>
        </mxCell>
        <mxCell id="ZHsEEIwiQLsHOn7oS_-y-41" value="" style="endArrow=classic;html=1;rounded=0;strokeColor=#FF0000;strokeWidth=2;fontSize=17;" parent="1" edge="1">
          <mxGeometry width="50" height="50" relative="1" as="geometry">
            <mxPoint x="470" y="260.97999999999996" as="sourcePoint" />
            <mxPoint x="520" y="260.98" as="targetPoint" />
          </mxGeometry>
        </mxCell>
        <mxCell id="ZHsEEIwiQLsHOn7oS_-y-42" value="1" style="text;html=1;strokeColor=none;fillColor=none;align=left;verticalAlign=middle;whiteSpace=wrap;rounded=0;fontSize=17;" parent="1" vertex="1">
          <mxGeometry x="524" y="245" width="59" height="30" as="geometry" />
        </mxCell>
        <mxCell id="ZHsEEIwiQLsHOn7oS_-y-45" value="" style="endArrow=classic;html=1;strokeColor=#33FFFF;strokeWidth=2;exitX=1;exitY=1;exitDx=0;exitDy=0;entryX=1;entryY=0;entryDx=0;entryDy=0;curved=1;fontSize=17;" parent="1" edge="1">
          <mxGeometry width="50" height="50" relative="1" as="geometry">
            <mxPoint x="560" y="215" as="sourcePoint" />
            <mxPoint x="560" y="275" as="targetPoint" />
            <Array as="points">
              <mxPoint x="591" y="239" />
            </Array>
          </mxGeometry>
        </mxCell>
        <mxCell id="ZHsEEIwiQLsHOn7oS_-y-46" value="" style="endArrow=classic;html=1;rounded=0;strokeColor=#FF0000;strokeWidth=2;fontSize=17;" parent="1" edge="1">
          <mxGeometry width="50" height="50" relative="1" as="geometry">
            <mxPoint x="580" y="253.67000000000002" as="sourcePoint" />
            <mxPoint x="630" y="253.67000000000002" as="targetPoint" />
          </mxGeometry>
        </mxCell>
        <mxCell id="ZHsEEIwiQLsHOn7oS_-y-47" value="2" style="text;html=1;strokeColor=none;fillColor=none;align=left;verticalAlign=middle;whiteSpace=wrap;rounded=0;fontSize=17;" parent="1" vertex="1">
          <mxGeometry x="639" y="237.67000000000002" width="60" height="30" as="geometry" />
        </mxCell>
        <mxCell id="ZHsEEIwiQLsHOn7oS_-y-48" value="" style="endArrow=classic;html=1;strokeColor=#FF66FF;strokeWidth=2;exitX=1;exitY=1;exitDx=0;exitDy=0;curved=1;entryX=-0.068;entryY=0.473;entryDx=0;entryDy=0;entryPerimeter=0;fontSize=17;" parent="1" source="ZHsEEIwiQLsHOn7oS_-y-8" target="ZHsEEIwiQLsHOn7oS_-y-50" edge="1">
          <mxGeometry width="50" height="50" relative="1" as="geometry">
            <mxPoint x="562.1400000000001" y="291.3599999999999" as="sourcePoint" />
            <mxPoint x="638.86" y="343.64" as="targetPoint" />
            <Array as="points">
              <mxPoint x="578.86" y="343.64" />
            </Array>
          </mxGeometry>
        </mxCell>
        <mxCell id="ZHsEEIwiQLsHOn7oS_-y-49" value="" style="endArrow=classic;html=1;rounded=0;strokeColor=#9933FF;strokeWidth=2;fontSize=17;" parent="1" edge="1">
          <mxGeometry width="50" height="50" relative="1" as="geometry">
            <mxPoint x="584" y="319.76000000000005" as="sourcePoint" />
            <mxPoint x="639" y="319.76000000000005" as="targetPoint" />
          </mxGeometry>
        </mxCell>
        <mxCell id="ZHsEEIwiQLsHOn7oS_-y-50" value="true" style="text;html=1;strokeColor=none;fillColor=none;align=left;verticalAlign=middle;whiteSpace=wrap;rounded=0;fontSize=17;" parent="1" vertex="1">
          <mxGeometry x="639" y="321.31" width="60" height="30" as="geometry" />
        </mxCell>
        <mxCell id="ZHsEEIwiQLsHOn7oS_-y-51" value="density" style="text;html=1;strokeColor=none;fillColor=none;align=left;verticalAlign=middle;whiteSpace=wrap;rounded=0;fontSize=17;" parent="1" vertex="1">
          <mxGeometry x="640" y="305" width="60" height="30" as="geometry" />
        </mxCell>
        <mxCell id="ZHsEEIwiQLsHOn7oS_-y-61" value="&lt;font style=&quot;font-size: 17px;&quot;&gt;&lt;b style=&quot;font-size: 17px;&quot;&gt;1&lt;/b&gt;&lt;/font&gt;" style="text;html=1;strokeColor=none;fillColor=none;align=center;verticalAlign=middle;whiteSpace=wrap;rounded=0;fontSize=17;" parent="1" vertex="1">
          <mxGeometry x="760" y="71" width="60" height="30" as="geometry" />
        </mxCell>
        <mxCell id="ZHsEEIwiQLsHOn7oS_-y-62" value="&lt;font style=&quot;font-size: 17px;&quot;&gt;&lt;b style=&quot;font-size: 17px;&quot;&gt;2&lt;/b&gt;&lt;/font&gt;" style="text;html=1;strokeColor=none;fillColor=none;align=center;verticalAlign=middle;whiteSpace=wrap;rounded=0;fontSize=17;" parent="1" vertex="1">
          <mxGeometry x="760" y="176.32999999999998" width="60" height="30" as="geometry" />
        </mxCell>
        <mxCell id="ZHsEEIwiQLsHOn7oS_-y-63" value="&lt;font style=&quot;font-size: 17px;&quot;&gt;&lt;b style=&quot;font-size: 17px;&quot;&gt;3&lt;/b&gt;&lt;/font&gt;" style="text;html=1;strokeColor=none;fillColor=none;align=center;verticalAlign=middle;whiteSpace=wrap;rounded=0;fontSize=17;" parent="1" vertex="1">
          <mxGeometry x="760" y="280" width="60" height="30" as="geometry" />
        </mxCell>
        <mxCell id="ZHsEEIwiQLsHOn7oS_-y-64" value="&lt;font style=&quot;font-size: 17px;&quot;&gt;&lt;b style=&quot;font-size: 17px;&quot;&gt;4&lt;/b&gt;&lt;/font&gt;" style="text;html=1;strokeColor=none;fillColor=none;align=center;verticalAlign=middle;whiteSpace=wrap;rounded=0;fontSize=17;" parent="1" vertex="1">
          <mxGeometry x="760" y="370" width="60" height="30" as="geometry" />
        </mxCell>
        <mxCell id="ZHsEEIwiQLsHOn7oS_-y-65" value="&lt;font style=&quot;font-size: 17px;&quot;&gt;&lt;b style=&quot;font-size: 17px;&quot;&gt;5&lt;/b&gt;&lt;/font&gt;" style="text;html=1;strokeColor=none;fillColor=none;align=center;verticalAlign=middle;whiteSpace=wrap;rounded=0;fontSize=17;" parent="1" vertex="1">
          <mxGeometry x="760" y="455" width="60" height="30" as="geometry" />
        </mxCell>
        <mxCell id="qi75Chx48pXVDhRD4G-2-1" value="&lt;div style=&quot;font-size: 13px;&quot;&gt;&lt;font style=&quot;font-size: 13px;&quot;&gt;1- data = np.loadtxt(&#39;nonParamTrain.txt&#39;)&lt;/font&gt;&lt;/div&gt;&lt;div style=&quot;font-size: 13px;&quot;&gt;&lt;font style=&quot;font-size: 13px;&quot;&gt;2- bins = computeBins(data, binSize = 0.5)&lt;/font&gt;&lt;/div&gt;&lt;div style=&quot;font-size: 13px;&quot;&gt;&lt;div&gt;&lt;font style=&quot;font-size: 13px;&quot;&gt;3- plt.hist(data, bins, density=&quot;true&quot;)&lt;/font&gt;&lt;/div&gt;&lt;/div&gt;&lt;div style=&quot;font-size: 13px;&quot;&gt;&lt;font style=&quot;font-size: 13px;&quot;&gt;4- plt.show();&lt;/font&gt;&lt;/div&gt;&lt;div style=&quot;font-size: 13px;&quot;&gt;&lt;font style=&quot;font-size: 13px;&quot;&gt;5- print(bins);&lt;/font&gt;&lt;/div&gt;" style="html=1;shadow=0;dashed=0;shape=mxgraph.bootstrap.rrect;rSize=5;strokeColor=#999999;strokeWidth=1;fillColor=#FFFFFF;fontColor=#0000FF;whiteSpace=wrap;align=left;verticalAlign=middle;spacingLeft=10;fontSize=14;spacing=10;fontFamily=Courier New;" vertex="1" parent="1">
          <mxGeometry y="250" width="360" height="110" as="geometry" />
        </mxCell>
      </root>
    </mxGraphModel>
  </diagram>
</mxfile>
